<svg xmlns="http://www.w3.org/2000/svg" width="26" height="26" viewBox="0 0 26 26">
  <g id="Aparat" transform="translate(-5 -5)">
    <g id="Group_528" data-name="Group 528" transform="translate(5 5)">
      <path id="Path_2138" data-name="Path 2138" d="M17.741,5.777l-2.952-.666A4.47,4.47,0,0,0,9.444,8.487l-.673,2.977A12.32,12.32,0,0,1,17.741,5.777Z" transform="translate(-6.191 -5)" fill="#eee"/>
      <path id="Path_2139" data-name="Path 2139" d="M5.777,26.119l-.666,2.952a4.47,4.47,0,0,0,3.376,5.345l2.977.673a12.322,12.322,0,0,1-5.687-8.97Z" transform="translate(-5 -11.669)" fill="#eee"/>
      <path id="Path_2140" data-name="Path 2140" d="M36.53,9.444l-2.977-.673A12.32,12.32,0,0,1,39.24,17.74l.666-2.952A4.47,4.47,0,0,0,36.53,9.444Z" transform="translate(-14.017 -6.191)" fill="#eee"/>
      <path id="Path_2141" data-name="Path 2141" d="M26.119,39.24l2.952.666a4.47,4.47,0,0,0,5.345-3.376l.673-2.977A12.32,12.32,0,0,1,26.119,39.24Z" transform="translate(-11.669 -14.017)" fill="#eee"/>
    </g>
    <path id="Path_2142" data-name="Path 2142" d="M18.947,8A10.947,10.947,0,1,0,29.895,18.947,10.947,10.947,0,0,0,18.947,8Zm-2.737,3.421a2.737,2.737,0,1,1-2.737,2.737A2.737,2.737,0,0,1,16.211,11.421Zm-2.053,13a2.737,2.737,0,1,1,2.737-2.737A2.737,2.737,0,0,1,14.158,24.421Zm3.421-5.474a1.368,1.368,0,1,1,1.368,1.338A1.368,1.368,0,0,1,17.579,18.947Zm4.105,7.526a2.737,2.737,0,1,1,2.737-2.737A2.737,2.737,0,0,1,21.684,26.474Zm2.053-7.526a2.737,2.737,0,1,1,2.737-2.737A2.737,2.737,0,0,1,23.737,18.947Z" transform="translate(-0.947 -0.947)" fill="#eee"/>
  </g>
</svg>
