<svg xmlns="http://www.w3.org/2000/svg" width="27" height="27.653" viewBox="0 0 27 27.653">
  <g id="armchair-silhouette" transform="translate(-0.58)">
    <g id="Group_883" data-name="Group 883" transform="translate(0.58)">
      <g id="Group_882" data-name="Group 882">
        <path id="Path_3206" data-name="Path 3206" d="M24.768,22.577a4.505,4.505,0,0,0-4.5,4.5V27.9a18.678,18.678,0,0,0-6.188-.822,18.681,18.681,0,0,0-6.188.822v-.822a4.505,4.505,0,0,0-4.5-4.5,2.813,2.813,0,0,0-1.081,5.41.841.841,0,0,1,.518.778l.563,2.25a3.943,3.943,0,0,0,3.491,3.911,1.372,1.372,0,1,0,1.226.026H20.053a1.371,1.371,0,1,0,1.225-.026,3.943,3.943,0,0,0,3.489-3.911l.563-2.25a.842.842,0,0,1,.518-.778,2.813,2.813,0,0,0-1.08-5.41Z" transform="translate(-0.58 -9.877)" fill="#fff"/>
        <path id="Path_3207" data-name="Path 3207" d="M13.377,15.885a25.925,25.925,0,0,1,4.641-.372,25.925,25.925,0,0,1,4.641.372,6.205,6.205,0,0,1,3.8-4.444v-3a8.438,8.438,0,0,0-16.876,0v3A6.206,6.206,0,0,1,13.377,15.885Z" transform="translate(-4.517)" fill="#fff"/>
      </g>
    </g>
  </g>
</svg>
