<svg id="Layer_2" data-name="Layer 2" xmlns="http://www.w3.org/2000/svg" width="23.561" height="23.548" viewBox="0 0 23.561 23.548">
  <g id="arrowhead-up">
    <path id="Path_22" data-name="Path 22" d="M7.745,16.118l9.034-7.267,9.034,7.537A1.679,1.679,0,0,0,27.949,13.8L17.855,5.385a1.682,1.682,0,0,0-2.137,0L5.625,13.511a1.68,1.68,0,1,0,2.12,2.608Z" transform="translate(-4.996 -5.003)" fill="#2e3d50"/>
    <path id="Path_23" data-name="Path 23" d="M17.855,12.385a1.682,1.682,0,0,0-2.137,0L5.625,20.511a1.687,1.687,0,1,0,2.12,2.624l9.034-7.284,9.034,7.537A1.679,1.679,0,0,0,27.949,20.8Z" transform="translate(-4.996 -0.227)" fill="#2e3d50"/>
  </g>
</svg>
