<svg xmlns="http://www.w3.org/2000/svg" width="25" height="25" viewBox="0 0 25 25">
  <g id="bx-at" transform="translate(-0.047)">
    <path id="Path_3597" data-name="Path 3597" d="M14.047,2c-6.892,0-12,6.108-12,13a11.676,11.676,0,0,0,12,12,13.856,13.856,0,0,0,6-1l-1-3c-1.5.744-3.555,2-5,2a10,10,0,1,1,10-10v1c0,.865.484,2-1,2a2.066,2.066,0,0,1-2-2V10h-3c-1.076-.826-2.643-2-4-2-3.446,0-6,3.554-6,7a5.838,5.838,0,0,0,6,6,7.174,7.174,0,0,0,5-2,4.692,4.692,0,0,0,4,2c2.841,0,4-2.576,4-5V15A13.386,13.386,0,0,0,14.047,2Zm0,16c-2.068,0-3-.932-3-3s.932-4,3-4a4.2,4.2,0,0,1,4,4C18.047,17.068,16.115,18,14.047,18Z" transform="translate(-2 -2)" fill="#ffd045"/>
  </g>
</svg>
