<svg id="bx-calendar" xmlns="http://www.w3.org/2000/svg" width="12.32" height="13.689" viewBox="0 0 12.32 13.689">
  <path id="Path_82" data-name="Path 82" d="M7,11H8.369v1.369H7Zm0,2.738H8.369v1.369H7ZM9.738,11h1.369v1.369H9.738Zm0,2.738h1.369v1.369H9.738ZM12.475,11h1.369v1.369H12.475Zm0,2.738h1.369v1.369H12.475Z" transform="translate(-4.262 -4.84)" fill="#2e3d50"/>
  <path id="Path_83" data-name="Path 83" d="M4.369,15.689h9.582A1.37,1.37,0,0,0,15.32,14.32V4.738a1.37,1.37,0,0,0-1.369-1.369H12.582V2H11.213V3.369H7.107V2H5.738V3.369H4.369A1.37,1.37,0,0,0,3,4.738V14.32A1.37,1.37,0,0,0,4.369,15.689Zm9.582-9.582V14.32H4.369V6.107Z" transform="translate(-3 -2)" fill="#2e3d50"/>
</svg>
