<svg xmlns="http://www.w3.org/2000/svg" xmlns:xlink="http://www.w3.org/1999/xlink" width="380" height="254.232" viewBox="0 0 380 254.232">
  <defs>
    <clipPath id="clip-path">
      <path id="Union_2" data-name="Union 2" d="M0,0V254.232H380V0Z" transform="translate(380 254.232) rotate(180)" fill="#fff"/>
    </clipPath>
  </defs>
  <g id="Mask_Group_5" data-name="Mask Group 5" transform="translate(0)" clip-path="url(#clip-path)">
    <g id="bxs-quote-right" transform="translate(48.918 195.027)">
      <path id="Path_2133" data-name="Path 2133" d="M90.61,70.322c9.13-9.909,8.21-22.633,8.181-22.778V8.838A4.838,4.838,0,0,0,93.953,4H64.924a9.686,9.686,0,0,0-9.676,9.676V47.544a4.838,4.838,0,0,0,4.838,4.838H74.978A13.982,13.982,0,0,1,72.9,59.136c-2.458,3.875-7.088,6.522-13.77,7.857l-3.885.774V81.412h4.838C73.55,81.412,83.822,77.681,90.61,70.322Zm-53.254,0c9.135-9.909,8.21-22.633,8.181-22.778V8.838A4.838,4.838,0,0,0,40.7,4H11.669a9.686,9.686,0,0,0-9.676,9.676V47.544a4.838,4.838,0,0,0,4.838,4.838H21.723a13.982,13.982,0,0,1-2.076,6.754c-2.458,3.875-7.088,6.522-13.77,7.857l-3.885.774V81.412H6.831C20.3,81.412,30.568,77.681,37.356,70.322Z" transform="translate(-1.993 -4)" fill="#ebebeb"/>
    </g>
  </g>
</svg>
