<svg id="ic_remove_red_eye_48px" xmlns="http://www.w3.org/2000/svg" width="18" height="18" viewBox="0 0 18 18">
  <path id="Path_3575" data-name="Path 3575" d="M0,0H18V18H0Z" fill="none"/>
  <path id="Path_3576" data-name="Path 3576" d="M10.25,9A8.87,8.87,0,0,0,2,14.625a8.863,8.863,0,0,0,16.5,0A8.866,8.866,0,0,0,10.25,9Zm0,9.375A3.75,3.75,0,1,1,14,14.625,3.751,3.751,0,0,1,10.25,18.375Zm0-6a2.25,2.25,0,1,0,2.25,2.25A2.252,2.252,0,0,0,10.25,12.375Z" transform="translate(-1.25 -5.625)" fill="#5e6979"/>
</svg>
