<svg id="girl" xmlns="http://www.w3.org/2000/svg" width="60.43" height="118.799" viewBox="0 0 60.43 118.799">
  <g id="Group_1208" data-name="Group 1208" transform="translate(0 23.776)">
    <g id="Group_1207" data-name="Group 1207">
      <path id="Path_3952" data-name="Path 3952" d="M185.941,142.761c-.077-.209-7.693-21.044-11.047-30.8-2.164-6.3-5.793-9.489-10.785-9.489h-16.2c-4.992,0-8.621,3.193-10.785,9.489-3.354,9.758-10.97,30.592-11.047,30.8a4.664,4.664,0,0,0,8.761,3.2c.063-.174,5.285-14.459,9.01-24.977a5.284,5.284,0,0,0,1.91,2.7l.011,6.834-8.023,20.228a1.947,1.947,0,0,0,1.354,2.612c1.2.288,2.784.68,4.5,1.11V191.9a5.6,5.6,0,0,0,11.194,0V157.115a13.6,13.6,0,0,0,2.416,0V191.9a5.6,5.6,0,0,0,11.195,0V154.464c1.719-.43,3.3-.821,4.5-1.108a1.951,1.951,0,0,0,1.355-2.613l-8.021-20.224.011-6.833a5.283,5.283,0,0,0,1.911-2.7c3.724,10.518,8.946,24.8,9.009,24.977a4.664,4.664,0,0,0,8.761-3.2Z" transform="translate(-125.795 -102.471)" fill="#e2a5ba"/>
    </g>
  </g>
  <g id="Group_1210" data-name="Group 1210" transform="translate(20.028 0)">
    <g id="Group_1209" data-name="Group 1209">
      <ellipse id="Ellipse_122" data-name="Ellipse 122" cx="10.187" cy="10.186" rx="10.187" ry="10.186" fill="#e2a5ba"/>
    </g>
  </g>
</svg>
