<svg xmlns="http://www.w3.org/2000/svg" width="32" height="32" viewBox="0 0 32 32">
  <g id="Group_1393" data-name="Group 1393" transform="translate(-351 -326)">
    <circle id="Ellipse_230" data-name="Ellipse 230" cx="16" cy="16" r="16" transform="translate(351 326)" fill="#2e3d50"/>
    <g id="Telegram_logo" transform="translate(304.396 265.173)">
      <path id="Path_3972" data-name="Path 3972" d="M81.229,89.677,83.7,96.505s.308.639.639.639,5.243-5.11,5.243-5.11L95.04,81.483,81.317,87.915Z" transform="translate(-26.146 -11.29)" fill="#c8daea"/>
      <path id="Path_3973" data-name="Path 3973" d="M97.807,138.878l-.474,5.033s-.2,1.542,1.344,0,3.018-2.731,3.018-2.731" transform="translate(-39.453 -58.739)" fill="#a9c6d8"/>
      <path id="Path_3974" data-name="Path 3974" d="M55.128,78.631l-5.075-1.653s-.606-.246-.411-.8c.04-.115.121-.213.364-.381,1.124-.784,20.812-7.86,20.812-7.86a1.677,1.677,0,0,1,.884-.063.479.479,0,0,1,.327.356,1.621,1.621,0,0,1,.044.448c0,.13-.017.251-.029.44-.12,1.935-3.708,16.374-3.708,16.374s-.215.845-.984.874a1.409,1.409,0,0,1-1.027-.4c-1.509-1.3-6.726-4.8-7.879-5.576a.22.22,0,0,1-.095-.156c-.016-.081.072-.182.072-.182s9.084-8.075,9.326-8.922c.019-.066-.052-.1-.147-.069-.6.222-11.063,6.827-12.217,7.556A.556.556,0,0,1,55.128,78.631Z" transform="translate(0 0)" fill="#fff"/>
    </g>
  </g>
</svg>
