<svg xmlns="http://www.w3.org/2000/svg" width="27.822" height="30.827" viewBox="0 0 27.822 30.827">
  <g id="Group_946" data-name="Group 946" transform="translate(-1480.349 -207.5)">
    <g id="bx-calendar" transform="translate(1480.349 207.5)">
      <path id="Path_82" data-name="Path 82" d="M7,11H9.831v2.831H7Zm0,5.662H9.831v2.831H7ZM12.662,11h2.831v2.831H12.662Zm0,5.662h2.831v2.831H12.662ZM18.325,11h2.831v2.831H18.325Z" transform="translate(-1.337 1.74)" fill="#fff"/>
      <path id="Subtraction_3" data-name="Subtraction 3" d="M14.721,28.311H2.832A2.835,2.835,0,0,1,0,25.481V5.663A2.835,2.835,0,0,1,2.832,2.831H5.663V0H8.494V2.831h8.493V0h2.832V2.831h2.831A2.835,2.835,0,0,1,25.48,5.663v12.16a7.725,7.725,0,0,0-2.83-.971V8.494H2.832V25.481H13.825a7.716,7.716,0,0,0,.9,2.83Z" transform="translate(0)" fill="#fff"/>
    </g>
    <g id="Group_945" data-name="Group 945" transform="translate(1495.685 225.84)">
      <path id="Path_2162" data-name="Path 2162" d="M8.243,2a6.243,6.243,0,1,0,6.243,6.243A6.243,6.243,0,0,0,8.243,2Zm0,11.238a4.995,4.995,0,1,1,4.995-4.995A4.995,4.995,0,0,1,8.243,13.238Z" transform="translate(-2 -2)" fill="#fff"/>
      <path id="Path_2163" data-name="Path 2163" d="M14.122,9.5H12.249V7.624a.624.624,0,0,0-1.249,0v2.5a.624.624,0,0,0,.624.624h2.5a.624.624,0,0,0,0-1.249Z" transform="translate(-5.381 -3.098)" fill="#fff"/>
    </g>
  </g>
</svg>
