<svg xmlns="http://www.w3.org/2000/svg" xmlns:xlink="http://www.w3.org/1999/xlink" width="44" height="44" viewBox="0 0 44 44">
  <defs>
    <linearGradient id="linear-gradient" x1="0.5" x2="0.5" y2="1" gradientUnits="objectBoundingBox">
      <stop offset="0" stop-color="#ffd045"/>
      <stop offset="1" stop-color="#f99f28"/>
    </linearGradient>
  </defs>
  <g id="Group_1392" data-name="Group 1392" transform="translate(-1541 -317)">
    <circle id="Ellipse_229" data-name="Ellipse 229" cx="22" cy="22" r="22" transform="translate(1541 317)" fill="#b82055"/>
    <g id="Group_1391" data-name="Group 1391" transform="translate(1548.857 324.857)">
      <path id="Path_3969" data-name="Path 3969" d="M75.539,50.676a12.024,12.024,0,0,0,1.591-6.895V30.87H70.854l.052,14.174a12.9,12.9,0,0,1-.189,2.635,9.81,9.81,0,0,1-2.172,4.474,11.485,11.485,0,0,1-4.506,3.13h3.24A10.062,10.062,0,0,0,75.539,50.676Z" transform="translate(-56.762 -27.362)" fill-rule="evenodd" fill="url(#linear-gradient)"/>
      <path id="Path_3970" data-name="Path 3970" d="M139.542,23.315a12.025,12.025,0,0,0,1.591-6.895V0h-6.279l.053,17.682a12.978,12.978,0,0,1-.189,2.635,9.812,9.812,0,0,1-2.173,4.474,11.476,11.476,0,0,1-4.506,3.13h3.242A10.065,10.065,0,0,0,139.542,23.315Z" transform="translate(-113.489 0)" fill-rule="evenodd" fill="url(#linear-gradient)"/>
      <path id="Path_3971" data-name="Path 3971" d="M11.5,77.072a11.98,11.98,0,0,0,1.591-6.895V60.65H6.819l.052,10.788a12.9,12.9,0,0,1-.189,2.637,9.8,9.8,0,0,1-2.172,4.474A11.568,11.568,0,0,1,0,81.679H3.241A10.067,10.067,0,0,0,11.5,77.072Z" transform="translate(0 -53.757)" fill-rule="evenodd" fill="url(#linear-gradient)"/>
    </g>
  </g>
</svg>
