<svg xmlns="http://www.w3.org/2000/svg" width="32" height="32" viewBox="0 0 32 32">
  <g id="Group_1437" data-name="Group 1437" transform="translate(-385 -279)">
    <circle id="Ellipse_230" data-name="Ellipse 230" cx="16" cy="16" r="16" transform="translate(385 279)" fill="#2e3d50"/>
    <g id="XMLID_468_" transform="translate(391 285)">
      <path id="XMLID_469_" d="M90.609,86.082c-.04-.019-1.524-.75-1.788-.845a1.027,1.027,0,0,0-.346-.076.588.588,0,0,0-.5.3c-.148.22-.6.745-.736.9-.018.021-.043.045-.058.045s-.243-.095-.313-.125A7.811,7.811,0,0,1,83.9,83.644a.164.164,0,0,1-.025-.059.478.478,0,0,1,.087-.1c.081-.08.168-.185.253-.287.04-.048.08-.1.12-.142a1.6,1.6,0,0,0,.241-.383l.033-.067a.692.692,0,0,0-.02-.652c-.035-.07-.662-1.583-.729-1.742-.16-.383-.372-.562-.666-.562-.027,0,0,0-.114,0a3.558,3.558,0,0,0-1.234.317,2.584,2.584,0,0,0-.958,2.2,4.737,4.737,0,0,0,1.027,2.608l.042.061a9.67,9.67,0,0,0,4.148,3.6,6.745,6.745,0,0,0,2.505.641h0a3.916,3.916,0,0,0,.408-.024l.073-.007a2.633,2.633,0,0,0,1.836-1.3,2.054,2.054,0,0,0,.117-1.352A.937.937,0,0,0,90.609,86.082Z" transform="translate(-75.542 -74.383)" fill="#c8daea"/>
      <path id="XMLID_470_" d="M10.362,0a9.975,9.975,0,0,0-10,9.926,9.853,9.853,0,0,0,1.371,5.019L.014,20.012a.264.264,0,0,0,.33.337L5.628,18.67A10.017,10.017,0,0,0,20.361,9.926,9.974,9.974,0,0,0,10.362,0Zm0,17.783A7.923,7.923,0,0,1,6,16.483a.265.265,0,0,0-.225-.031l-2.647.841.854-2.521a.265.265,0,0,0-.037-.241A7.75,7.75,0,0,1,2.44,9.926a7.921,7.921,0,1,1,7.921,7.857Z" transform="translate(0)" fill="#fff"/>
    </g>
  </g>
</svg>
