<svg xmlns="http://www.w3.org/2000/svg" width="26" height="26.04" viewBox="0 0 26 26.04">
  <g id="bxl-instagram" transform="translate(-3.002 -3.005)">
    <path id="Path_27" data-name="Path 27" d="M13.924,7.377a6.549,6.549,0,1,0,6.549,6.549,6.549,6.549,0,0,0-6.549-6.549Zm0,10.8a4.254,4.254,0,1,1,4.255-4.254A4.255,4.255,0,0,1,13.924,18.179Z" transform="translate(2.068 2.067)" fill="#eee"/>
    <circle id="Ellipse_10" data-name="Ellipse 10" cx="1.588" cy="1.588" r="1.588" transform="translate(21.326 7.503)" fill="#eee"/>
    <path id="Path_28" data-name="Path 28" d="M28.313,7.489a6.649,6.649,0,0,0-3.8-3.8,9.538,9.538,0,0,0-3.156-.606C19.965,3.022,19.525,3,16,3s-3.978,0-5.357.078a9.463,9.463,0,0,0-3.153.606,6.641,6.641,0,0,0-3.8,3.8,9.507,9.507,0,0,0-.6,3.156C3.021,12.035,3,12.475,3,16s0,3.975.081,5.357a9.523,9.523,0,0,0,.6,3.158,6.656,6.656,0,0,0,3.8,3.8,9.506,9.506,0,0,0,3.155.65c1.39.061,1.831.079,5.357.079s3.978,0,5.357-.079a9.551,9.551,0,0,0,3.156-.6,6.66,6.66,0,0,0,3.8-3.8,9.507,9.507,0,0,0,.6-3.156c.062-1.389.081-1.829.081-5.357s0-3.975-.081-5.357A9.5,9.5,0,0,0,28.313,7.489ZM26.555,21.252a7.281,7.281,0,0,1-.449,2.437,4.313,4.313,0,0,1-2.472,2.47,7.2,7.2,0,0,1-2.411.449c-1.372.064-1.759.079-5.276.079s-3.879,0-5.277-.079a7.161,7.161,0,0,1-2.41-.449,4.31,4.31,0,0,1-2.482-2.47,7.334,7.334,0,0,1-.449-2.41c-.062-1.372-.077-1.759-.077-5.276s0-3.878.077-5.277a7.274,7.274,0,0,1,.449-2.436A4.312,4.312,0,0,1,8.26,5.819a7.233,7.233,0,0,1,2.41-.449c1.373-.062,1.759-.079,5.277-.079s3.879,0,5.276.079a7.161,7.161,0,0,1,2.411.449,4.318,4.318,0,0,1,2.472,2.472,7.335,7.335,0,0,1,.449,2.41c.062,1.373.078,1.759.078,5.277s0,3.9-.062,5.276h-.016Z" transform="translate(0 0)" fill="#eee"/>
  </g>
</svg>
