<svg xmlns="http://www.w3.org/2000/svg" width="27" height="28.801" viewBox="0 0 27 28.801">
  <g id="invoice_1_" data-name="invoice (1)" transform="translate(-16.012)">
    <g id="Group_949" data-name="Group 949" transform="translate(16.012)">
      <path id="Path_3566" data-name="Path 3566" d="M38.512,0h-18.9l.076.036a4.011,4.011,0,0,0-3.676,3.989V10.8h7.2V27.9a.9.9,0,0,0,1.235.835l4.165-1.667,4.165,1.667a.876.876,0,0,0,.668,0l4.167-1.667,4.165,1.667a.907.907,0,0,0,.335.065.9.9,0,0,0,.9-.9V4.5A4.505,4.505,0,0,0,38.512,0Zm-15.3,5.4V9h-5.4V4.025A2.229,2.229,0,0,1,20.037,1.8h.95a2.229,2.229,0,0,1,2.225,2.225V5.4Zm15.3,16.2h-7.2a.9.9,0,0,1,0-1.8h7.2a.9.9,0,1,1,0,1.8Zm0-3.6h-7.2a.9.9,0,0,1,0-1.8h7.2a.9.9,0,1,1,0,1.8Zm0-3.6h-10.8a.9.9,0,1,1,0-1.8h10.8a.9.9,0,1,1,0,1.8Zm0-7.2h-10.8a.9.9,0,1,1,0-1.8h10.8a.9.9,0,1,1,0,1.8Z" transform="translate(-16.012)" fill="#fff"/>
    </g>
  </g>
</svg>
