<svg xmlns="http://www.w3.org/2000/svg" width="19.511" height="19.125" viewBox="0 0 19.511 19.125">
  <g id="Group_1212" data-name="Group 1212" transform="translate(-1076.385 -1819)">
    <g id="girl" transform="translate(1076.385 1819)">
      <g id="Group_1208" data-name="Group 1208" transform="translate(0 3.789)">
        <g id="Group_1207" data-name="Group 1207">
          <path id="Path_3952" data-name="Path 3952" d="M135.378,108.891c-.012-.033-1.226-3.353-1.76-4.908-.345-1-.923-1.512-1.718-1.512h-2.581c-.8,0-1.374.509-1.718,1.512-.534,1.555-1.748,4.875-1.76,4.908a.743.743,0,0,0,1.4.51c.01-.028.842-2.3,1.435-3.98a.842.842,0,0,0,.3.43l0,1.089-1.278,3.223a.31.31,0,0,0,.216.416c.191.046.444.108.718.177v5.964a.892.892,0,0,0,1.784,0v-5.543a2.167,2.167,0,0,0,.385,0v5.543a.892.892,0,0,0,1.784,0v-5.965c.274-.068.526-.131.717-.177a.311.311,0,0,0,.216-.416l-1.278-3.223,0-1.089a.842.842,0,0,0,.3-.43c.593,1.676,1.425,3.952,1.435,3.98a.743.743,0,0,0,1.4-.51Z" transform="translate(-125.795 -102.471)" fill="#2e3d50"/>
        </g>
      </g>
      <g id="Group_1210" data-name="Group 1210" transform="translate(3.191 0)">
        <g id="Group_1209" data-name="Group 1209">
          <ellipse id="Ellipse_122" data-name="Ellipse 122" cx="1.623" cy="1.623" rx="1.623" ry="1.623" fill="#2e3d50"/>
        </g>
      </g>
    </g>
    <g id="standing-up-man-" transform="translate(1087.813 1819)">
      <g id="Group_1211" data-name="Group 1211" transform="translate(0 0)">
        <ellipse id="Ellipse_123" data-name="Ellipse 123" cx="1.61" cy="1.61" rx="1.61" ry="1.61" transform="translate(2.4)" fill="#2e3d50"/>
        <path id="Path_3953" data-name="Path 3953" d="M20.03,11.059a2.931,2.931,0,0,0-1.231.015c-2.676.314-3.545,3.411-3.3,5.774.106,1.021,1.716,1.032,1.609,0a6.131,6.131,0,0,1,.406-3.083V17.13c0,.04,0,.077.006.115,0,.018-.005.034-.005.052,0,2.671,0,5.342-.115,8.011-.049,1.187,1.791,1.182,1.839,0,.086-2.092.108-4.185.113-6.279a2.128,2.128,0,0,0,.261,0c.005,2.093.026,4.187.112,6.278.049,1.182,1.889,1.187,1.839,0-.11-2.669-.114-5.34-.114-8.011a1.008,1.008,0,0,0-.028-.231c0-1.16-.047-2.321-.033-3.48a5.836,5.836,0,0,1,.5,3.259c-.108,1.031,1.5,1.021,1.609,0C23.752,14.435,22.842,11.257,20.03,11.059Z" transform="translate(-15.459 -7.071)" fill="#2e3d50"/>
      </g>
    </g>
  </g>
</svg>
