<svg xmlns="http://www.w3.org/2000/svg" width="17.409" height="17.414" viewBox="0 0 17.409 17.414">
  <g id="bxs-phone" transform="translate(-3.295 -3.293)">
    <path id="Path_2146" data-name="Path 2146" d="M14.594,13.994l-1.66,1.66a5.729,5.729,0,0,1-2.926-1.66,5.717,5.717,0,0,1-1.661-2.926l1.661-1.66.7-.7L5.295,3.293l-.7.7-1,1a.991.991,0,0,0-.291.649A15.1,15.1,0,0,0,7.594,16.409,15.142,15.142,0,0,0,18,20.707c.2,0,.326-.006.358-.008a.994.994,0,0,0,.649-.291l1-1,.7-.7L15.29,13.3l-.7.7Z" fill="#ffd045"/>
  </g>
</svg>
