<svg xmlns="http://www.w3.org/2000/svg" xmlns:xlink="http://www.w3.org/1999/xlink" width="115" height="115" viewBox="0 0 115 115">
  <defs>
    <filter id="Ellipse_221" x="0" y="0" width="115" height="115" filterUnits="userSpaceOnUse">
      <feOffset dy="3" input="SourceAlpha"/>
      <feGaussianBlur stdDeviation="7.5" result="blur"/>
      <feFlood flood-color="#2e3d50" flood-opacity="0.349"/>
      <feComposite operator="in" in2="blur"/>
      <feComposite in="SourceGraphic"/>
    </filter>
  </defs>
  <g id="Group_1379" data-name="Group 1379" transform="translate(22.379 19.045)">
    <g transform="matrix(1, 0, 0, 1, -22.38, -19.05)" filter="url(#Ellipse_221)">
      <circle id="Ellipse_221-2" data-name="Ellipse 221" cx="35" cy="35" r="35" transform="translate(22.5 19.5)" fill="#fff"/>
    </g>
    <g id="question-mark" transform="translate(20.675 12.522)">
      <g id="Layer_2" data-name="Layer 2" transform="translate(0 0)">
        <g id="menu-arrow">
          <path id="Path_3962" data-name="Path 3962" d="M35.348,18.174A14.174,14.174,0,0,0,7,18.174a2.835,2.835,0,0,0,5.67,0,8.5,8.5,0,1,1,8.5,8.5,2.835,2.835,0,0,0-2.835,2.835v5.67a2.835,2.835,0,1,0,5.67,0V32.064A14.174,14.174,0,0,0,35.348,18.174Z" transform="translate(-7 -4)" fill="#2e3d50"/>
          <ellipse id="Ellipse_131" data-name="Ellipse 131" cx="2.984" cy="2.611" rx="2.984" ry="2.611" transform="translate(11.19 39.836)" fill="#2e3d50"/>
        </g>
      </g>
    </g>
  </g>
</svg>
