<svg id="standing-up-man-" xmlns="http://www.w3.org/2000/svg" width="50.726" height="120.029" viewBox="0 0 50.726 120.029">
  <g id="Group_1211" data-name="Group 1211" transform="translate(0 0)">
    <ellipse id="Ellipse_123" data-name="Ellipse 123" cx="10.104" cy="10.103" rx="10.104" ry="10.103" transform="translate(15.065)" fill="#b82055"/>
    <path id="Path_3953" data-name="Path 3953" d="M44.147,11.365a18.4,18.4,0,0,0-7.727.094c-16.8,1.968-22.252,21.41-20.712,36.234.668,6.409,10.772,6.476,10.1,0-.56-5.4-.321-13.555,2.551-19.35V49.471c0,.249.025.482.036.722-.007.114-.034.211-.034.327,0,16.765-.029,33.524-.722,50.276-.307,7.447,11.24,7.418,11.545,0,.543-13.129.679-26.266.711-39.4a13.354,13.354,0,0,0,1.641,0c.034,13.138.166,26.275.7,39.4.307,7.418,11.854,7.447,11.545,0-.693-16.752-.717-33.511-.717-50.276a6.326,6.326,0,0,0-.175-1.448c-.016-7.279-.294-14.564-.208-21.838,3.439,5.822,3.753,14.7,3.156,20.455-.677,6.472,9.429,6.407,10.1,0C67.511,32.557,61.794,12.611,44.147,11.365Z" transform="translate(-15.459 13.659)" fill="#b82055"/>
  </g>
</svg>
